<mxfile host="app.diagrams.net" modified="2024-04-29T08:42:41.060Z" agent="Mozilla/5.0 (Macintosh; Intel Mac OS X 10_15_7) AppleWebKit/537.36 (KHTML, like Gecko) Chrome/124.0.0.0 Safari/537.36" etag="XduXZ2kaEwAO6-MaYLBZ" version="24.3.1" type="github">
  <diagram id="R2lEEEUBdFMjLlhIrx00" name="Page-1">
    <mxGraphModel dx="2284" dy="1861" grid="1" gridSize="10" guides="1" tooltips="1" connect="1" arrows="1" fold="1" page="1" pageScale="1" pageWidth="850" pageHeight="1100" math="0" shadow="0" extFonts="Permanent Marker^https://fonts.googleapis.com/css?family=Permanent+Marker">
      <root>
        <mxCell id="0" />
        <mxCell id="1" parent="0" />
        <mxCell id="mtR7O2sxXtL3vLJpCdlz-1" value="&lt;p style=&quot;margin:0px;margin-top:4px;text-align:center;&quot;&gt;&lt;b&gt;col_resource_category  /* 资源栏目 */&lt;/b&gt;&lt;/p&gt;&lt;hr size=&quot;1&quot;/&gt;&lt;p style=&quot;margin:0 0 0 4px;line-height:1.6;&quot;&gt; parent_id  /* 父类id */: bigint(20)&lt;br/&gt; data_name  /* 栏目名称 */: varchar(20)&lt;br/&gt; data_code  /* 栏目编号 */: varchar(30)&lt;br/&gt; description  /* 栏目描述 */: varchar(50)&lt;br/&gt; sort  /* 排序 */: int(5)&lt;br/&gt; enabled  /* 是否启用 */: tinyint(1)&lt;br/&gt; relation_id  /* 关联栏目 */: bigint(20)&lt;br/&gt; create_time  /* 创建时间 */: datetime&lt;br/&gt; update_time  /* 更新时间 */: datetime&lt;/p&gt;&lt;hr size=&quot;1&quot;/&gt;&lt;p style=&quot;margin:0 0 0 4px;line-height:1.6;&quot;&gt; id  /* 主键 */: bigint(20)&lt;/p&gt;" style="verticalAlign=top;align=left;overflow=fill;fontSize=14;fontFamily=Helvetica;html=1;rounded=0;shadow=0;comic=0;labelBackgroundColor=none;strokeWidth=1;" vertex="1" parent="1">
          <mxGeometry x="190" y="-313" width="290" height="273" as="geometry" />
        </mxCell>
        <mxCell id="mtR7O2sxXtL3vLJpCdlz-2" value="&lt;p style=&quot;margin:0px;margin-top:4px;text-align:center;&quot;&gt;&lt;b&gt;col_resource_center  /* 资源发布 */&lt;/b&gt;&lt;/p&gt;&lt;hr size=&quot;1&quot;/&gt;&lt;p style=&quot;margin:0 0 0 4px;line-height:1.6;&quot;&gt; resource_no  /* 资源编号 */: varchar(30)&lt;br/&gt; resource_name  /* 作品标题 */: varchar(250)&lt;br/&gt; category_code  /* 栏目编号 */: varchar(30)&lt;br/&gt; category_name  /* 栏目名称 */: varchar(20)&lt;br/&gt; author  /* 作者 */: varchar(25)&lt;br/&gt; cover_pic  /* 封面图 */: varchar(500)&lt;br/&gt; image_file  /* 图像文件 */: text&lt;br/&gt; description  /* 作品描述 */: text&lt;br/&gt; allow_comment  /* 允许评论 */: tinyint(1)&lt;br/&gt; allow_download  /* 允许下载 */: tinyint(1)&lt;br/&gt; allow_praise  /* 允许点赞 */: tinyint(1)&lt;br/&gt; download_count  /* 下载数 */: int(10)&lt;br/&gt; comment_count  /* 留言数 */: int(10)&lt;br/&gt; praise_count  /* 点赞数 */: int(10)&lt;br/&gt; is_top  /* 是否置顶 */: tinyint(1)&lt;br/&gt; sort  /* 排序 */: int(5)&lt;br/&gt; state  /* 是否启用 */: tinyint(1)&lt;br/&gt; is_release  /* 是否已发布 */: tinyint(1)&lt;br/&gt; release_time  /* 发布时间 */: datetime&lt;br/&gt; creator_name  /* 创建人名称 */: varchar(30)&lt;br/&gt; creator  /* 创建人 */: bigint(20)&lt;br/&gt; create_time  /* 创建时间 */: datetime&lt;br/&gt; modifier  /* 修改人 */: bigint(20)&lt;br/&gt; modify_time  /* 修改时间 */: datetime&lt;br/&gt; is_deleted  /* 是否已删除 */: tinyint(1)&lt;br/&gt; visit  /* 访问量 */: int(11)&lt;/p&gt;&lt;hr size=&quot;1&quot;/&gt;&lt;p style=&quot;margin:0 0 0 4px;line-height:1.6;&quot;&gt; id  /* 主键 */: bigint(20)&lt;/p&gt;" style="verticalAlign=top;align=left;overflow=fill;fontSize=14;fontFamily=Helvetica;html=1;rounded=0;shadow=0;comic=0;labelBackgroundColor=none;strokeWidth=1;" vertex="1" parent="1">
          <mxGeometry x="-230" y="-320" width="290" height="663" as="geometry" />
        </mxCell>
        <mxCell id="mtR7O2sxXtL3vLJpCdlz-5" value="" style="endArrow=classic;html=1;rounded=0;exitX=0.003;exitY=0.33;exitDx=0;exitDy=0;exitPerimeter=0;entryX=1;entryY=0.145;entryDx=0;entryDy=0;entryPerimeter=0;" edge="1" parent="1" source="mtR7O2sxXtL3vLJpCdlz-1" target="mtR7O2sxXtL3vLJpCdlz-2">
          <mxGeometry width="50" height="50" relative="1" as="geometry">
            <mxPoint x="330" y="30" as="sourcePoint" />
            <mxPoint x="140" y="-110" as="targetPoint" />
          </mxGeometry>
        </mxCell>
      </root>
    </mxGraphModel>
  </diagram>
</mxfile>
